{
	"asset":{
		"version":"2.0",
		"generator":"Created using the official Cinema 4D glTF Exporter 1.000x284978"
	},
	"scenes":[{
		"nodes":[0]
	}],
	"nodes":[{
		"name":"SMILEY + EWAN MCVICAR WEB 02",
		"translation":[5.094461917877197,
		0.5687150955200195,
		-8.728219985961914],
		"rotation":[0.0,
		0.0,
		0.0,
		-1.0],
		"scale":[1.0,
		1.0,
		1.0],
		"children":[1,
		2,
		5]
	},
	{
		"mesh":0,
		"name":"Sphere",
		"translation":[-5.094461917877197,
		-0.5687150955200195,
		8.718835830688477],
		"rotation":[0.0,
		0.0,
		0.0,
		-1.0],
		"scale":[1.0,
		1.0,
		1.0]
	},
	{
		"name":"Null",
		"translation":[-5.094461917877197,
		-0.5687150955200195,
		8.728219985961914],
		"rotation":[0.0,
		0.0,
		0.0,
		-1.0],
		"scale":[1.0,
		1.0,
		1.0],
		"children":[3,
		4]
	},
	{
		"mesh":1,
		"name":"EWAN MCVICAR 02"
	},
	{
		"mesh":2,
		"name":"EWAN MCVICAR 01"
	},
	{
		"name":"CAM",
		"translation":[7.309768199920654,
		-2.7774276733398439,
		8.716813087463379],
		"rotation":[-0.062191955745220187,
		-0.704687774181366,
		0.062249213457107547,
		-0.704039990901947],
		"scale":[1.0,
		1.0,
		1.0],
		"camera":0
	}],
	"meshes":[{
		"name":"Sphere",
		"primitives":[{
			"attributes":{
				"POSITION":1,
				"NORMAL":2,
				"TEXCOORD_0":3
			},
			"indices":0
		}]
	},
	{
		"name":"EWAN MCVICAR 02",
		"primitives":[{
			"attributes":{
				"POSITION":5,
				"NORMAL":6,
				"TEXCOORD_0":7
			},
			"indices":4
		}]
	},
	{
		"name":"EWAN MCVICAR 01",
		"primitives":[{
			"attributes":{
				"POSITION":9,
				"NORMAL":10,
				"TEXCOORD_0":11
			},
			"indices":8
		}]
	}],
	"cameras":[{
		"type":"perspective",
		"perspective":{
			"znear":0.009999999776482582,
			"zfar":10000000000.0,
			"aspectRatio":1.7777777910232545,
			"yfov":0.769618570804596
		}
	}],
	"accessors":[{
		"bufferView":0,
		"type":"SCALAR",
		"componentType":5123,
		"count":39204,
		"byteOffset":0,
		"min":[0],
		"max":[6931]
	},
	{
		"bufferView":1,
		"type":"VEC3",
		"componentType":5126,
		"count":6932,
		"byteOffset":0,
		"min":[-3.805507183074951,
		-3.805507183074951,
		-3.805507183074951],
		"max":[3.805507183074951,
		3.805507183074951,
		3.805507183074951]
	},
	{
		"bufferView":1,
		"type":"VEC3",
		"componentType":5126,
		"count":6932,
		"byteOffset":12,
		"min":[-0.9990885853767395,
		-0.9990885853767395,
		-0.9990885853767395],
		"max":[0.9990885853767395,
		0.9990885853767395,
		0.9990885853767395]
	},
	{
		"bufferView":1,
		"type":"VEC2",
		"componentType":5126,
		"count":6932,
		"byteOffset":24,
		"min":[0.0,
		-2.7755575615628916e-17],
		"max":[1.0,
		1.0]
	},
	{
		"bufferView":2,
		"type":"SCALAR",
		"componentType":5123,
		"count":6060,
		"byteOffset":0,
		"min":[0],
		"max":[2311]
	},
	{
		"bufferView":3,
		"type":"VEC3",
		"componentType":5126,
		"count":2312,
		"byteOffset":0,
		"min":[-4.294403076171875,
		-0.7470685243606567,
		-4.246170997619629],
		"max":[-0.6314134001731873,
		0.7763028144836426,
		4.2393083572387699]
	},
	{
		"bufferView":3,
		"type":"VEC3",
		"componentType":5126,
		"count":2312,
		"byteOffset":12,
		"min":[-0.9999966621398926,
		-1.0000001192092896,
		-0.9990531802177429],
		"max":[0.9999972581863403,
		1.0,
		0.9994845986366272]
	},
	{
		"bufferView":3,
		"type":"VEC2",
		"componentType":5126,
		"count":2312,
		"byteOffset":24,
		"min":[0.0,
		0.0],
		"max":[1.0,
		1.0]
	},
	{
		"bufferView":4,
		"type":"SCALAR",
		"componentType":5123,
		"count":6060,
		"byteOffset":0,
		"min":[0],
		"max":[2312]
	},
	{
		"bufferView":5,
		"type":"VEC3",
		"componentType":5126,
		"count":2313,
		"byteOffset":0,
		"min":[0.6314134001731873,
		-0.7470685243606567,
		-4.2393083572387699],
		"max":[4.294403076171875,
		0.7763028144836426,
		4.246170997619629]
	},
	{
		"bufferView":5,
		"type":"VEC3",
		"componentType":5126,
		"count":2313,
		"byteOffset":12,
		"min":[-0.9999972581863403,
		-1.0000001192092896,
		-0.9994845986366272],
		"max":[0.9999966621398926,
		1.0,
		0.9990531802177429]
	},
	{
		"bufferView":5,
		"type":"VEC2",
		"componentType":5126,
		"count":2313,
		"byteOffset":24,
		"min":[0.0,
		0.0],
		"max":[1.0,
		1.0]
	}],
	"bufferViews":[{
		"buffer":0,
		"byteOffset":0,
		"byteLength":78408,
		"target":34963
	},
	{
		"buffer":0,
		"byteOffset":78408,
		"byteLength":221824,
		"target":34962,
		"byteStride":32
	},
	{
		"buffer":1,
		"byteOffset":0,
		"byteLength":12120,
		"target":34963
	},
	{
		"buffer":1,
		"byteOffset":12120,
		"byteLength":73984,
		"target":34962,
		"byteStride":32
	},
	{
		"buffer":2,
		"byteOffset":0,
		"byteLength":12120,
		"target":34963
	},
	{
		"buffer":2,
		"byteOffset":12120,
		"byteLength":74016,
		"target":34962,
		"byteStride":32
	}],
	"buffers":[{
		"uri":"data:application/octet-stream;base64,",
		"byteLength":300232
	},
	{
		"uri":"data:application/octet-stream;base64,",
		"byteLength":86104
	},
	{
		"uri":"data:application/octet-stream;base64,",
		"byteLength":86136
	}]
}